<svg width="355" height="263" viewBox="0 0 355 263" fill="none" xmlns="http://www.w3.org/2000/svg">
<ellipse cx="235.594" cy="80" rx="80.5" ry="80" fill="#FF9143" fill-opacity="0.8"/>
<path d="M37.1019 65.8282C62.7323 41.129 98.4829 26.8436 133.858 33.5548C169.028 40.2273 203.691 67.6272 227.617 125.861C227.611 125.834 227.608 125.819 227.608 125.816C252.051 101.372 281.812 99.3646 309.086 110.878C385.415 146.701 350.857 256.999 306.678 259.05C306.377 259.156 306.014 259.256 305.596 259.349C303.25 259.87 298.765 260.315 292.643 260.687C280.374 261.431 261.383 261.886 239.38 262.012C195.373 262.263 139.276 261.199 100.738 258.501C96.5288 258.206 92.2011 257.165 88.3255 255.493C31.6976 231.068 6.00484 196.041 0.948551 160.859C-4.10404 125.703 11.472 90.527 37.1019 65.8282Z" fill="white" fill-opacity="0.6"/>
</svg>
