<svg width="315" height="302" viewBox="0 0 315 302" fill="none" xmlns="http://www.w3.org/2000/svg">
<path d="M209.026 220.682C229.899 246.339 241.026 263.89 238.367 277.252C236.505 289.627 222.817 301.307 209.019 301.307C195.196 301.306 181.481 289.583 179.66 277.182C177.056 263.828 188.184 246.293 209.019 220.682L209.022 220.678C209.024 220.676 209.025 220.675 209.026 220.674V220.682Z" fill="#4E89BC" fill-opacity="0.6"/>
<path d="M112 134.679C143.975 173.983 161.037 200.882 157.002 221.363C154.181 240.36 133.167 258.304 111.989 258.304C90.7597 258.304 69.6946 240.272 66.9559 221.224C63.0281 200.76 80.0871 173.894 111.989 134.679L111.994 134.672C111.996 134.67 111.998 134.668 112 134.666V134.679Z" fill="#4E89BC" fill-opacity="0.6"/>
<path d="M76.4318 56.6894C109.905 -27.9534 230.611 -15.1662 243.44 77.4052C304.982 70.2645 356.893 170.39 265.638 199.175C258.092 201.555 251.584 202.766 245.997 202.984C219.898 210.039 106.057 203.814 63.5344 196.774C61.98 196.735 60.3677 196.637 58.6965 196.476C-24.6714 188.45 -19.6496 55.0234 76.4318 56.6894Z" fill="white" fill-opacity="0.6"/>
</svg>
