<svg width="389" height="245" viewBox="0 0 389 245" fill="none" xmlns="http://www.w3.org/2000/svg">
<path d="M76.4318 56.6894C109.905 -27.9534 230.611 -15.1662 243.44 77.4052C304.982 70.2645 356.893 170.39 265.638 199.175C258.092 201.555 251.584 202.766 245.997 202.984C219.898 210.039 106.057 203.814 63.5344 196.774C61.98 196.735 60.3677 196.637 58.6965 196.476C-24.6714 188.45 -19.6496 55.0234 76.4318 56.6894Z" fill="white" fill-opacity="0.6"/>
<path d="M150.432 94.6894C183.905 10.0466 304.611 22.8338 317.44 115.405C378.982 108.264 430.893 208.39 339.638 237.175C332.092 239.555 325.584 240.766 319.997 240.984C293.898 248.039 180.057 241.814 137.534 234.774C135.98 234.735 134.368 234.637 132.696 234.476C49.3286 226.45 54.3504 93.0234 150.432 94.6894Z" fill="white" fill-opacity="0.6"/>
</svg>
