<svg width="315" height="298" viewBox="0 0 315 298" fill="none" xmlns="http://www.w3.org/2000/svg">
<rect x="93.3291" y="159" width="6.38175" height="37.6531" rx="3.19088" fill="white" fill-opacity="0.7"/>
<rect width="6.38182" height="15.3461" rx="3.19091" transform="matrix(-0.739485 -0.673173 -0.673157 0.739499 108.379 166.487)" fill="white" fill-opacity="0.7"/>
<rect width="6.38182" height="15.3461" rx="3.19091" transform="matrix(0.739485 -0.673173 0.673157 0.739499 85.0332 166.487)" fill="white" fill-opacity="0.7"/>
<rect width="6.38175" height="37.6531" rx="3.19088" transform="matrix(1 0 0 -1 93.3291 229.001)" fill="white" fill-opacity="0.7"/>
<rect width="6.38182" height="15.3461" rx="3.19091" transform="matrix(-0.739485 0.673173 -0.673157 -0.739499 108.379 221.515)" fill="white" fill-opacity="0.7"/>
<rect width="6.38182" height="15.3461" rx="3.19091" transform="matrix(0.739485 0.673173 0.673157 -0.739499 85.0332 221.515)" fill="white" fill-opacity="0.7"/>
<rect width="6.38186" height="37.6525" rx="3.19093" transform="matrix(-0.499992 0.86603 -0.866021 -0.500008 128.53 207.462)" fill="white" fill-opacity="0.7"/>
<rect width="6.38182" height="15.3461" rx="3.19091" transform="matrix(0.952714 -0.30384 -0.303834 -0.952734 114.521 216.751)" fill="white" fill-opacity="0.7"/>
<rect width="6.38182" height="15.3461" rx="3.19091" transform="matrix(0.213229 0.977011 -0.976992 0.213234 126.193 196.533)" fill="white" fill-opacity="0.7"/>
<rect width="6.38186" height="37.6525" rx="3.19093" transform="matrix(-0.499992 0.86603 0.866021 0.500008 68.5244 173.144)" fill="white" fill-opacity="0.7"/>
<rect width="6.38182" height="15.3461" rx="3.19091" transform="matrix(-0.213229 -0.977011 0.976992 -0.213234 67.4834 189.92)" fill="white" fill-opacity="0.7"/>
<rect width="6.38182" height="15.3461" rx="3.19091" transform="matrix(-0.952714 0.30384 0.303834 0.952734 79.1567 169.702)" fill="white" fill-opacity="0.7"/>
<rect width="6.38186" height="37.6525" rx="3.19093" transform="matrix(-0.499992 -0.86603 0.866021 -0.500008 68.5347 213.327)" fill="white" fill-opacity="0.7"/>
<rect width="6.38182" height="15.3461" rx="3.19091" transform="matrix(-0.213229 0.977011 0.976992 0.213234 67.4937 196.55)" fill="white" fill-opacity="0.7"/>
<rect width="6.38182" height="15.3461" rx="3.19091" transform="matrix(-0.952714 -0.30384 0.303834 -0.952734 79.166 216.768)" fill="white" fill-opacity="0.7"/>
<rect width="6.38186" height="37.6525" rx="3.19093" transform="matrix(-0.499992 -0.86603 -0.866021 0.500008 128.52 178.975)" fill="white" fill-opacity="0.7"/>
<rect width="6.38182" height="15.3461" rx="3.19091" transform="matrix(0.952714 0.30384 -0.303834 0.952734 114.511 169.685)" fill="white" fill-opacity="0.7"/>
<rect width="6.38182" height="15.3461" rx="3.19091" transform="matrix(0.213229 -0.977011 -0.976992 -0.213234 126.184 189.903)" fill="white" fill-opacity="0.7"/>
<rect x="216.318" y="191" width="5.78723" height="34.1454" rx="2.89361" fill="white" fill-opacity="0.7"/>
<rect width="5.78728" height="13.9165" rx="2.89364" transform="matrix(-0.739485 -0.673173 -0.673157 0.739499 229.966 197.79)" fill="white" fill-opacity="0.7"/>
<rect width="5.78728" height="13.9165" rx="2.89364" transform="matrix(0.739485 -0.673173 0.673157 0.739499 208.795 197.79)" fill="white" fill-opacity="0.7"/>
<rect width="5.78723" height="34.1454" rx="2.89361" transform="matrix(1 0 0 -1 216.318 254.48)" fill="white" fill-opacity="0.7"/>
<rect width="5.78728" height="13.9165" rx="2.89364" transform="matrix(-0.739485 0.673173 -0.673157 -0.739499 229.966 247.691)" fill="white" fill-opacity="0.7"/>
<rect width="5.78728" height="13.9165" rx="2.89364" transform="matrix(0.739485 0.673173 0.673157 -0.739499 208.795 247.691)" fill="white" fill-opacity="0.7"/>
<rect width="5.78732" height="34.1448" rx="2.89366" transform="matrix(-0.499992 0.86603 -0.866021 -0.500008 248.239 234.947)" fill="white" fill-opacity="0.7"/>
<rect width="5.78729" height="13.9164" rx="2.89365" transform="matrix(0.952714 -0.30384 -0.303834 -0.952734 235.535 243.371)" fill="white" fill-opacity="0.7"/>
<rect width="5.78729" height="13.9164" rx="2.89365" transform="matrix(0.213229 0.977011 -0.976992 0.213234 246.12 225.037)" fill="white" fill-opacity="0.7"/>
<rect width="5.78732" height="34.1448" rx="2.89366" transform="matrix(-0.499992 0.86603 0.866021 0.500008 193.824 203.826)" fill="white" fill-opacity="0.7"/>
<rect width="5.78729" height="13.9164" rx="2.89365" transform="matrix(-0.213229 -0.977011 0.976992 -0.213234 192.88 219.04)" fill="white" fill-opacity="0.7"/>
<rect width="5.78729" height="13.9164" rx="2.89365" transform="matrix(-0.952714 0.30384 0.303834 0.952734 203.465 200.705)" fill="white" fill-opacity="0.7"/>
<rect width="5.78732" height="34.1448" rx="2.89366" transform="matrix(-0.499992 -0.86603 0.866021 -0.500008 193.834 240.266)" fill="white" fill-opacity="0.7"/>
<rect width="5.78729" height="13.9164" rx="2.89365" transform="matrix(-0.213229 0.977011 0.976992 0.213234 192.89 225.052)" fill="white" fill-opacity="0.7"/>
<rect width="5.78729" height="13.9164" rx="2.89365" transform="matrix(-0.952714 -0.30384 0.303834 -0.952734 203.475 243.387)" fill="white" fill-opacity="0.7"/>
<rect width="5.78732" height="34.1448" rx="2.89366" transform="matrix(-0.499992 -0.86603 -0.866021 0.500008 248.23 209.114)" fill="white" fill-opacity="0.7"/>
<rect width="5.78729" height="13.9164" rx="2.89365" transform="matrix(0.952714 0.30384 -0.303834 0.952734 235.527 200.689)" fill="white" fill-opacity="0.7"/>
<rect width="5.78729" height="13.9164" rx="2.89365" transform="matrix(0.213229 -0.977011 -0.976992 -0.213234 246.112 219.024)" fill="white" fill-opacity="0.7"/>
<path d="M76.4318 56.6894C109.905 -27.9534 230.611 -15.1662 243.44 77.4052C304.982 70.2645 356.893 170.39 265.638 199.175C258.092 201.555 251.584 202.766 245.997 202.984C219.898 210.039 106.057 203.814 63.5344 196.774C61.98 196.735 60.3677 196.637 58.6965 196.476C-24.6714 188.45 -19.6496 55.0234 76.4318 56.6894Z" fill="white" fill-opacity="0.6"/>
<rect x="144.318" y="234" width="5.78723" height="34.1454" rx="2.89361" fill="white" fill-opacity="0.7"/>
<rect width="5.78728" height="13.9165" rx="2.89364" transform="matrix(-0.739485 -0.673173 -0.673157 0.739499 157.966 240.79)" fill="white" fill-opacity="0.7"/>
<rect width="5.78728" height="13.9165" rx="2.89364" transform="matrix(0.739485 -0.673173 0.673157 0.739499 136.795 240.79)" fill="white" fill-opacity="0.7"/>
<rect width="5.78723" height="34.1454" rx="2.89361" transform="matrix(1 0 0 -1 144.318 297.48)" fill="white" fill-opacity="0.7"/>
<rect width="5.78728" height="13.9165" rx="2.89364" transform="matrix(-0.739485 0.673173 -0.673157 -0.739499 157.966 290.691)" fill="white" fill-opacity="0.7"/>
<rect width="5.78728" height="13.9165" rx="2.89364" transform="matrix(0.739485 0.673173 0.673157 -0.739499 136.795 290.691)" fill="white" fill-opacity="0.7"/>
<rect width="5.78732" height="34.1448" rx="2.89366" transform="matrix(-0.499992 0.86603 -0.866021 -0.500008 176.238 277.947)" fill="white" fill-opacity="0.7"/>
<rect width="5.78729" height="13.9164" rx="2.89365" transform="matrix(0.952714 -0.30384 -0.303834 -0.952734 163.535 286.371)" fill="white" fill-opacity="0.7"/>
<rect width="5.78729" height="13.9164" rx="2.89365" transform="matrix(0.213229 0.977011 -0.976992 0.213234 174.12 268.037)" fill="white" fill-opacity="0.7"/>
<rect width="5.78732" height="34.1448" rx="2.89366" transform="matrix(-0.499992 0.86603 0.866021 0.500008 121.824 246.826)" fill="white" fill-opacity="0.7"/>
<rect width="5.78729" height="13.9164" rx="2.89365" transform="matrix(-0.213229 -0.977011 0.976992 -0.213234 120.879 262.04)" fill="white" fill-opacity="0.7"/>
<rect width="5.78729" height="13.9164" rx="2.89365" transform="matrix(-0.952714 0.30384 0.303834 0.952734 131.465 243.705)" fill="white" fill-opacity="0.7"/>
<rect width="5.78732" height="34.1448" rx="2.89366" transform="matrix(-0.499992 -0.86603 0.866021 -0.500008 121.834 283.266)" fill="white" fill-opacity="0.7"/>
<rect width="5.78729" height="13.9164" rx="2.89365" transform="matrix(-0.213229 0.977011 0.976992 0.213234 120.89 268.052)" fill="white" fill-opacity="0.7"/>
<rect width="5.78729" height="13.9164" rx="2.89365" transform="matrix(-0.952714 -0.30384 0.303834 -0.952734 131.475 286.387)" fill="white" fill-opacity="0.7"/>
<rect width="5.78732" height="34.1448" rx="2.89366" transform="matrix(-0.499992 -0.86603 -0.866021 0.500008 176.23 252.114)" fill="white" fill-opacity="0.7"/>
<rect width="5.78729" height="13.9164" rx="2.89365" transform="matrix(0.952714 0.30384 -0.303834 0.952734 163.527 243.689)" fill="white" fill-opacity="0.7"/>
<rect width="5.78729" height="13.9164" rx="2.89365" transform="matrix(0.213229 -0.977011 -0.976992 -0.213234 174.112 262.024)" fill="white" fill-opacity="0.7"/>
</svg>
